<svg xmlns="http://www.w3.org/2000/svg" viewBox="0 0 24 24" stroke="currentColor" stroke-width="2" fill="none" stroke-linecap="round" stroke-linejoin="round">
  <!-- Lucide Palette Icon -->
  <circle cx="13.5" cy="6.5" r="1.5" fill="currentColor" />
  <circle cx="17.5" cy="10.5" r="1.5" fill="currentColor" />
  <circle cx="8.5" cy="7.5" r="1.5" fill="currentColor" />
  <circle cx="6.5" cy="12.5" r="1.5" fill="currentColor" />
  <path d="M12 2C6.5 2 2 6.5 2 12s4.5 10 10 10c.9 0 1.6-.7 1.6-1.7 0-.4-.2-.8-.4-1.1-.3-.3-.4-.7-.4-1.1a1.64 1.64 0 0 1 1.67-1.67h2c3.05 0 5.56-2.5 5.56-5.56C22 6 17.46 2 12 2z" />
</svg>
